<?xml version="1.0" encoding="UTF-8" standalone="no"?>
<!-- Generator: Adobe Illustrator 16.0.0, SVG Export Plug-In . SVG Version: 6.00 Build 0)  -->

<svg
   version="1.1"
   id="svg3617"
   x="0px"
   y="0px"
   width="799.62769"
   height="568.92828"
   viewBox="-221.643 -155.329 799.62769 568.92828"
   enable-background="new -221.643 -155.329 1000 730"
   xml:space="preserve"
   sodipodi:docname="NBC_Sports_2023.svg"
   inkscape:version="1.2.1 (9c6d41e410, 2022-07-14)"
   xmlns:inkscape="http://www.inkscape.org/namespaces/inkscape"
   xmlns:sodipodi="http://sodipodi.sourceforge.net/DTD/sodipodi-0.dtd"
   xmlns="http://www.w3.org/2000/svg"
   xmlns:svg="http://www.w3.org/2000/svg"><sodipodi:namedview
   id="namedview182"
   pagecolor="#ffffff"
   bordercolor="#000000"
   borderopacity="0.25"
   inkscape:showpageshadow="2"
   inkscape:pageopacity="0.0"
   inkscape:pagecheckerboard="0"
   inkscape:deskcolor="#d1d1d1"
   showgrid="false"
   inkscape:zoom="1.1328339"
   inkscape:cx="366.77927"
   inkscape:cy="230.39564"
   inkscape:window-width="1920"
   inkscape:window-height="1009"
   inkscape:window-x="-8"
   inkscape:window-y="-8"
   inkscape:window-maximized="1"
   inkscape:current-layer="svg3617" /><defs
   id="defs29">
	
	

		
		
	
		
		
	</defs>

<g
   id="g1920"
   transform="translate(8.1530858e-4,-1e-5)"><path
     id="path15681"
     style="opacity:1;fill:#fccc12;fill-opacity:1;stroke:none;stroke-width:10.7909;stroke-linecap:round;stroke-linejoin:round;paint-order:stroke markers fill"
     d="m -33.078547,42.95225 c -30.141972,-7.32e-4 -54.578046,26.620532 -54.578125,54.576172 v 0.002 c 0,10.948138 2.525538,19.924658 6.521484,27.273438 2.243606,-0.3311 4.482617,-0.65531 6.671875,-0.92187 10.662633,-1.31029 20.638697,-1.8977 29.703125,-1.9375 v 0.002 c 0.113249,-0.003 11.071466,-0.30415 23.701172,2.66797 12.6923988,2.98687 28.4243634,9.41314 35.648438,24.90234 0.544539,1.15531 1.022624,2.35062 1.443359,3.57813 44.275272,0.0113 88.735869,0.0156 132.689449,0.0156 L -5.8383125,50.237406 C -14.123209,45.464621 -23.517218,42.952835 -33.078547,42.95225 Z m -11.414062,95.98633 -0.0918,0.002 c -7.172408,0.0282 -15.073491,0.46184 -23.464844,1.3457 7.179699,5.70552 15.315377,9.27234 22.65625,11.13672 2.724661,-0.10081 5.26536,-0.15356 7.390625,-0.11718 h 0.0098 c 11.13807,0.177 18.78205,0.83752 24.423828,1.78515 3.490101,0.002 7.0076981,4.4e-4 10.503906,0.002 -4.7405395,-6.06564 -13.207512,-9.88677 -21.888672,-11.92968 -10.296186,-2.42297 -19.447266,-2.22461 -19.447266,-2.22461 z" /><path
     style="opacity:1;fill:#ff7112;fill-opacity:1;stroke:none;stroke-width:10.7909;stroke-linecap:round;stroke-linejoin:round;paint-order:stroke markers fill"
     d="m 9.7384689,-77.619805 c -17.7639615,0.171381 -35.0364089,8.517458 -44.6103849,23.133227 -22.991914,35.099984 0.14937,65.728797 15.011035,75.463742 50.3672,33.050065 104.408407,71.264377 154.850801,104.306076 L 59.238795,-47.045234 C 54.923626,-55.577426 48.685352,-63.44878 40.687496,-68.688381 31.23235,-74.88221 20.396843,-77.72263 9.7384689,-77.619805 Z"
     id="path15679"
     sodipodi:nodetypes="scccccs" /><path
     style="opacity:1;fill:#05ac3f;fill-opacity:1;stroke:none;stroke-width:10.7909;stroke-linecap:round;stroke-linejoin:round;paint-order:stroke markers fill"
     d="m 389.41962,42.95215 c 30.14197,-7.32e-4 54.57738,26.62019 54.57748,54.575858 v 0.0015 c 0,41.959922 -36.57273,55.558712 -54.33895,55.558712 -60.24256,0.048 -121.73836,0.0226 -182.03914,0.0226 L 362.17992,50.237241 c 8.2849,-4.772788 17.67834,-7.285245 27.2397,-7.285831 z"
     id="path15681-7" /><path
     style="opacity:1;fill:#ef1541;fill-opacity:1;stroke:none;stroke-width:10.7909;stroke-linecap:round;stroke-linejoin:round;paint-order:stroke markers fill"
     d="m 113.58228,-155.32846 c -6.91625,0.0209 -13.783697,1.40502 -20.14707,4.29512 -38.204226,17.35159 -35.04093,55.607541 -27.694094,71.783503 L 140.75703,95.501254 168.9614,-94.3937 c 0.91957,-9.517 -0.13934,-19.50463 -4.09282,-28.21037 -9.3479,-20.58322 -30.5376,-32.78649 -51.2863,-32.72439 z"
     id="path1016"
     sodipodi:nodetypes="scccccs" /><path
     style="opacity:1;fill:#6e55dc;fill-opacity:1;stroke:none;stroke-width:10.7909;stroke-linecap:round;stroke-linejoin:round;paint-order:stroke markers fill"
     d="m 242.1838,-155.32846 c -20.7487,-0.0621 -40.4,8.7537 -51.28632,32.72439 -3.54531,7.80695 -4.76124,16.64348 -4.31174,25.248321 h 26.15523 c 6.78186,0 9.25927,2.891497 11.11044,4.637819 2.05436,2.016238 1.54945,2.583594 -0.10252,3.091881 -10.0486,3.091874 -31.52576,14.931531 -31.52576,31.891029 l 2.16778,13.70964 0.001,0.004 20.95635,139.522234 75.75108,-174.751226 c 7.34683,-16.175941 9.43518,-54.431928 -28.76897,-71.783508 -6.3634,-2.89009 -13.23086,-4.27437 -20.14709,-4.29511 z"
     id="path1016-9"
     sodipodi:nodetypes="cccscccccccscc" /><path
     style="opacity:1;fill:#069de0;fill-opacity:1;stroke:none;stroke-width:10.7909;stroke-linecap:round;stroke-linejoin:round;paint-order:stroke markers fill"
     d="m 346.60275,-77.619819 c 17.76398,0.171389 35.0364,8.517459 44.61037,23.133235 22.99191,35.099977 -0.22466,65.728803 -15.08646,75.463748 C 325.75945,54.027252 271.20188,92.241541 220.75951,125.28324 l 76.3429,-172.328487 c 4.3152,-8.532186 10.55346,-16.403546 18.55132,-21.643141 9.45517,-6.193828 20.29065,-9.034255 30.94902,-8.931431 z"
     id="path15679-6"
     sodipodi:nodetypes="scccccs" /></g><g
   id="g446"
   transform="matrix(2.6365274,0,0,-2.6365274,426.59612,679.79148)">
</g>
<g
   id="g450"
   transform="matrix(2.6365274,0,0,-2.6365274,457.00556,680.06119)">
</g>
<g
   id="g454"
   transform="matrix(2.6365274,0,0,-2.6365274,492.8568,694.37253)">
</g>
<g
   id="g458"
   transform="matrix(2.6365274,0,0,-2.6365274,415.49449,596.90617)">
</g>
<g
   id="g462"
   transform="matrix(2.6365274,0,0,-2.6365274,302.18314,616.07478)">
</g>
<g
   id="g466"
   transform="matrix(2.6365274,0,0,-2.6365274,350.26971,553.01247)">
</g>
<g
   id="g478"
   transform="matrix(2.6365274,0,0,-2.6365274,469.09641,617.16446)">
</g>
<g
   id="g526"
   transform="matrix(2.6365274,0,0,-2.6365274,319.6707,643.29983)">
</g>

<path
   id="path3119_1_"
   style="fill:#fdb913;fill-opacity:1;stroke-width:0.799628"
   d="m -44.616794,130.44247 c -8.75192,0.0344 -18.445151,0.60156 -28.820313,1.87696 -5.332713,0.6493 -10.849927,1.49527 -16.496094,2.55078 -33.757859,6.28266 -72.537209,20.07702 -108.277339,46.30078 -27.34805,20.04346 -23.20898,34.39648 -23.20898,34.39648 0,0 -0.48516,27.82358 20.625,34.58204 8.53282,2.73631 14.74433,4.18482 28.65625,5.57617 26.9994,2.71313 46.99903,3.09458 74.984366,4.99609 16.496308,1.12428 27.937997,3.00348 35.751953,5.04492 -22.895723,8.45046 -46.465639,17.92125 -67.031249,28.21485 -17.94603,8.9958 -44.80582,24.07878 -54.42773,36.13476 -11.17559,13.99268 -1.40231,25.21424 -2.01563,23.5918 1.87753,3.45439 9.35443,15.78999 39.48438,11.97656 14.98982,-1.91351 32.48307,-9.00805 46.035151,-16.35742 19.394956,-10.54948 33.759055,-22.80386 42.441406,-31.18555 17.377496,-16.78577 22.304937,-29.73528 22.328125,-41.01562 0,-4.35877 -0.869616,-7.90676 -1.970703,-10.68946 20.960625,-7.27981 39.3331091,-12.83246 51.541016,-16.26367 -34.176063,41.08485 -91.827304,119.7418 -66.265625,155.87696 0,0 1.670046,2.80688 3.908203,5.3457 0,0 4.531799,3.75587 6.224609,1.46094 1.692012,-2.28373 -3.339843,-4.74219 -3.339843,-4.74219 -1.472914,-1.78557 -2.387578,-4.64931 -1.738282,-9.47266 0.672487,-4.81135 1.971553,-12.3343 6.132813,-23.23242 l 7.046875,-15.82422 c -0.02239,0.0232 -0.03292,0.0471 -0.04492,0.0703 0.02319,-0.0704 0.05741,-0.11625 0.0918,-0.17382 l -0.04687,0.10351 c 8.764712,-15.2097 23.7312676,-36.18119 41.7812503,-54.11523 45.0030127,-44.69036 85.1849267,-63.11114 93.4043047,-65.75391 5.982,-1.90152 8.60239,-1.40351 9.58593,-0.48633 5.75012,5.1472 -8.5664,28.19336 -8.5664,28.19336 -0.24388,0.37182 -0.47539,0.69513 -0.73047,1.04297 -9.672894,14.12042 -17.846759,24.41886 -24.996099,32.04688 -4.766227,5.08534 -9.076733,8.98277 -13.074219,12.03711 -5.996229,4.58151 -11.287216,7.26286 -16.347656,9.19726 -3.508064,1.03902 -6.499621,1.25334 -8.958985,1.05274 -2.459364,-0.20061 -4.385575,-0.81574 -5.765625,-1.43555 -0.920033,-0.41321 -1.59639,-0.82739 -2.02539,-1.12305 -3.28087,-3.11854 -5.10224,-7.39814 -4.800782,-9.48437 0.579731,-3.95256 -1.193359,-3.83594 -1.193359,-3.83594 -2.412975,0.81742 -3.417466,2.92222 -3.730469,5.23437 -0.104334,0.77072 -0.130186,1.56316 -0.107422,2.33985 v 0.002 c 0.09106,3.10675 0.986329,5.93945 0.986328,5.93945 4.776973,21.45879 34.569318,26.94222 62.810547,5.79688 18.676101,-13.98068 29.866201,-26.57418 37.056641,-37.37305 1.79762,-2.69971 3.34512,-5.28672 4.69727,-7.75586 4.05644,-7.40742 6.35482,-13.74764 8.36328,-18.85156 5.33272,-13.61045 -4.82357,-24.09045 -13.87695,-31.18555 -9.07736,-7.03671 -22.003912,-1.49609 -22.003913,-1.49609 -21.737463,6.92747 -44.966221,22.97213 -64.654296,39.28516 -2.812583,2.33043 -5.553669,4.66485 -8.207032,6.98047 9.73866,-11.16359 20.751696,-23.19614 33.306641,-36.17969 0,0 8.937694,-4.60312 2.0625,-11.38477 -6.850405,-6.74725 -15.011719,-13.1582 -15.011719,-13.1582 0,0 -3.269389,-2.87406 -4.822265,-1.69141 -1.542481,1.17145 -0.394934,4.3228 -0.105469,4.77539 0.278271,0.4406 -4.080078,5.77344 -4.080078,5.77344 0,0 -0.302145,0.31357 -0.71875,0.77734 -7.199043,6.27149 -20.20606,12.56827 -26.826172,15.54688 -14.2469565,5.21676 -32.448277,11.36044 -52.052735,18.31641 -1.124275,-1.10109 -2.43433,-2.16808 -4,-3.16602 -23.417079,-14.65236 -93.414562,-15.92868 -120.298822,-17.91016 -29.02887,-2.17897 -35.56663,-4.08035 -36.64453,-8.8789 -1.41454,-6.2483 7.74398,-15.08215 20.85547,-24.64649 38.8243,-28.32199 88.940897,-39.39466 120.542961,-42.87304 9.725864,-1.07789 17.714686,-1.42594 23.058593,-1.33399 24.913182,0.39502 31.8912165,3.30674 32.2734382,5.13867 0.3942162,1.75039 -0.7988282,3.10547 -0.7988282,3.10547 -0.2318918,0.26707 -0.4631449,0.53479 -0.7070312,0.78907 -3.9421618,4.23162 -9.1460308,7.04682 -14.7578128,10.65234 -22.802967,14.75792 -47.578125,25.67969 -47.578125,25.67969 -5.425471,5.04244 5.101562,6.3164 5.101562,6.3164 14.467653,-0.47578 28.344526,-3.96487 41.398438,-8.96093 26.9882151,-10.32959 33.478897,-19.64971 34.244141,-25.20313 0.40461,-2.89785 0.312653,-5.83156 0,-8.48633 C 10.32059,162.69072 8.4315768,157.99633 8.791409,158.61044 8.3276253,156.63937 7.689492,154.80796 6.8890653,153.11435 -4.1585829,129.4094 -44.616794,130.44247 -44.616794,130.44247 Z M 458.34415,163.1788 c -1.34488,-0.11604 -3.31885,0.33953 -5.83008,2.63086 -2.93624,2.70514 -21.44982,21.47504 -47.41211,53.9375 -28.91212,3.85581 -62.18705,6.20812 -70.75586,7.21485 0,0 -4.22014,0.86864 -5.85937,-2.03321 0,0 -0.93807,-0.65347 -1.76758,-0.52344 -0.20779,0.0326 -0.40836,0.11403 -0.58594,0.26758 -0.17732,0.15297 -0.33082,0.37696 -0.44531,0.69532 -0.11461,0.31867 -0.19018,0.73033 -0.20899,1.25976 -0.0189,0.52868 0.0175,1.1731 0.12696,1.95703 0,0 0.919,16.64458 16.95312,13.61719 9.09096,-1.7224 27.57406,-4.13883 50.62891,-7.24219 -3.90378,5.08084 -9.88346,12.69372 -16.2461,21.60156 -10.78357,11.77101 -24.38742,26.22229 -37.7539,39.33594 -8.91099,8.74243 -17.71607,16.89052 -25.51172,23.25391 -11.69348,9.54509 -21.11349,15.07354 -25.20508,12.57031 0,0 -2.39193,-2.21447 -0.7207,-7.60156 2.46525,-8.01546 11.72115,-22.55193 30.33008,-44.37695 0,0 8.57068,-10.16786 8.21484,-14.66016 -0.53895,-6.89199 -4.39258,-6.74023 -4.39258,-6.74024 0,0 -24.73834,-7.31597 -32.99609,-14.72851 3.46957,-5.3783 9.78832,-17.37987 1.71289,-22.99805 0,0 -1.46184,-0.92873 -3.69141,-1.26367 -1.48638,-0.22329 -3.31288,-0.18283 -5.27539,0.57227 -2.94376,1.13265 -6.19206,3.87377 -9.04883,9.74414 -3.07775,6.24508 -2.80371,12.25776 1.19922,17.80078 -5.65976,5.9972 -21.32896,21.32025 -36.92969,25.84375 -0.88678,-5.44387 -3.19332,-8.76126 -6.6621,-10.49805 0,0 -8.59359,-4.32575 -13.25782,1.06055 -4.64183,5.35909 -0.53415,10.71147 4.23242,14.35937 -1.41533,4.25162 -5.34231,9.82099 -10.84375,18.44336 -7.03272,11.05085 -16.19962,21.51604 -28.70898,29.9961 -4.24363,2.89624 -21.59873,12.92091 -26.1582,-0.80469 -2.48844,-7.55328 1.68034,-22.16217 12.37695,-38.76563 13.76508,-21.43051 30.95472,-33.85624 43.94727,-38.85937 2.59851,-1.00063 5.0287,-1.70558 7.23046,-2.125 4.40353,-0.83885 7.89174,-0.53926 9.97657,0.79492 0,0 3.91462,3.87443 1.5957,8.14844 0,0 -0.88375,2.3494 2.26758,2.63086 3.18492,0.30786 4.9464,-2.45701 5.47656,-5.22852 1.30659,-7.25502 -5.26832,-15.56275 -12.76562,-21.51758 -2.24856,-1.78796 -4.83895,-3.02929 -7.81836,-4.52539 0,0 -13.09521,-4.61664 -30.98047,4.28321 -5.49264,2.71473 -28.94644,15.63798 -45.9961,46.00781 -5.41187,9.61392 -8.81986,19.91066 -8.70312,29.88281 0.0408,6.56653 1.2731,13.05434 4.78906,19.08594 1.34977,2.30053 8.51267,11.72148 18.14258,16.65039 19.21584,9.84581 41.76874,-8.86593 50.55664,-16.875 1.9316,-1.76948 3.80585,-3.61089 5.61328,-5.49414 1.80743,-1.88325 3.54712,-3.8084 5.20899,-5.7461 9.97117,-11.62617 17.12921,-23.69879 19.16406,-29.81054 20.25376,-5.23756 40.28967,-25.53104 46.82422,-32.66211 1.19065,0.79483 2.40126,1.58056 3.79101,2.3418 l 12.15821,6.46093 c -7.12948,8.20577 -7.17,8.23967 -14.73047,18.9043 -7.77797,10.99247 -27.0881,36.82407 -14.60352,53.45312 2.43967,3.29926 5.76591,7.35114 11.22656,9.51172 16.48832,6.52816 35.17533,-9.67862 64.08985,-40.06445 4.57306,-4.81615 8.98422,-9.61372 13.18945,-14.30273 -1.80556,3.60631 -3.4573,7.22938 -4.82226,10.79492 -3.79443,9.88864 -4.2167,19.22049 -1.3418,27.16601 0.31943,0.88284 0.67936,1.74828 1.08008,2.59571 2.5e-4,5.4e-4 -2.6e-4,10e-4 0,0.002 0.40052,0.84689 0.84272,1.67513 1.32422,2.48437 2.40899,4.04931 5.82952,7.61334 10.25,10.54883 8.38968,5.56461 19.29394,3.02537 31.74414,-5.16601 24.60372,-16.23003 60.92268,-52.7889 83.98632,-77.10157 -0.83401,3.33285 -1.62195,6.98946 -2.34961,11.08594 -5.47744,30.50178 -23.98908,69.73066 -31.29687,59.67774 -0.13274,1.47372 -0.2312,-6.78434 -4.19336,-10.11719 -3.61431,-3.0018 -6.77598,-3.79521 -10.8125,-1.14844 -1.96738,1.2936 -2.83082,3.9043 -2.29102,7.09766 0.17994,1.06445 0.51687,2.19294 1.01954,3.35937 2.01021,4.66619 6.68953,9.9291 14.74804,14.04492 3.68869,1.88793 6.98113,2.88947 10.01172,3.2461 8.76631,1.48092 26.52236,1.62041 47.44141,-14.05469 28.33079,-21.27887 59.0039,-51.77344 59.0039,-51.77344 0,0 6.14692,-5.43409 0.33204,-8.79492 0,0 -2.82287,-1.47193 -5.48243,0.91016 -1.53048,1.37457 -2.89648,3.17187 -2.89648,3.17187 0.38607,-0.38907 -37.71219,35.921 -63.61328,51.87891 -1.72674,1.06386 -3.39865,2.0363 -5.00196,2.90234 4.13487,-5.08083 6.72301,-12.41779 8.9004,-21.09375 1.81834,-7.29179 4.94656,-26.95355 8.24023,-41.36523 1.79277,-7.84354 4.32687,-14.13847 5.14648,-16 3.11774,-7.03272 7.44578,-6.43724 8.44532,-8.48828 0.72126,-1.44653 0.44827,-2.76376 -1.41407,-5.05469 -1.55526,-1.95189 -3.63875,-3.96451 -5.35156,-5.54297 -2.03585,-1.87913 -6.29735,-4.76591 -8.55469,-5.19531 -1.55527,-0.29667 -3.33658,-0.18163 -4.90625,1.05859 -1.43053,1.11628 -3.92847,3.35046 -6.73437,8.07227 -15.54395,16.96088 -66.51509,71.33734 -97.71094,89.85351 1.66163,-1.00114 -25.33113,17.24901 -19.625,-6.48632 2.62198,-10.80296 13.46365,-34.97541 43.90625,-73.13282 l 15.82422,-17.66992 c 12.99714,-1.86154 26.51625,-3.88688 40.00195,-6.07226 0,0 118.97079,-14.75016 86.75782,10.58203 0,0 2.06857,3.98856 7.03906,0.0488 10.35757,-8.19458 14.22011,-15.32873 13.61719,-19.10937 -2.05025,-12.27748 -20.71444,-15.17222 -53.45118,-12.55664 -12.96175,1.02912 -34.57549,3.89416 -56.93359,7.23633 -7.4527,1.11405 -14.98692,2.28132 -22.3125,3.45117 l 28.79688,-32.13281 c 0,0 6.26077,-4.02846 -0.17383,-8.99414 -6.42821,-4.96089 -13.44336,-8.28516 -13.44336,-8.28516 0,0 -0.71763,-0.68864 -2.0625,-0.80469 z M -51.317966,271.68857 c 0.984341,1.85434 1.170581,4.23057 -0.591797,7.30273 -9.366832,16.33479 -41.200742,35.91538 -51.808587,41.875 -5.87727,3.31526 -19.442,11.2333 -36.15821,17.29688 -18.44419,6.67768 -34.90505,9.74765 -36.43554,5.22656 -0.63731,-1.89032 -1.86677,-2.71224 4.11523,-9.0293 7.03673,-7.37336 28.50545,-21.16966 48.3418,-31.42968 23.06924,-11.96402 48.794575,-22.53745 72.537104,-31.24219 z" /></svg>
